<svg width="8" height="14" viewBox="0 0 8 14" fill="none" xmlns="http://www.w3.org/2000/svg">
<path d="M6.56149 13.3268L6.56154 13.3268L6.56755 13.3331C6.61786 13.3856 6.67781 13.4272 6.74381 13.4558C6.80979 13.4844 6.88061 13.4994 6.95216 13.5C7.02372 13.5006 7.09477 13.4869 7.16122 13.4595C7.22768 13.4321 7.28832 13.3915 7.3395 13.3399C7.3907 13.2883 7.4314 13.2267 7.45903 13.1586C7.48666 13.0905 7.50062 13.0174 7.49998 12.9436C7.49934 12.8699 7.48413 12.797 7.45533 12.7295C7.42654 12.6619 7.3848 12.6011 7.33275 12.5504L7.3327 12.5504L7.32657 12.5443L2.16298 7.33922L1.81365 6.98708L2.16298 6.63494L7.32303 1.43346C7.42087 1.32998 7.47559 1.19133 7.47434 1.0467C7.47309 0.900825 7.41501 0.762077 7.31387 0.660122L7.66414 0.312644L7.31387 0.660121C7.21285 0.558292 7.07703 0.501255 6.9359 0.500019C6.79596 0.498794 6.66034 0.552509 6.55792 0.650903L0.660438 6.59573C0.660421 6.59575 0.660403 6.59577 0.660385 6.59579C0.558145 6.69891 0.5 6.83958 0.5 6.98708C0.5 7.13461 0.558165 7.2753 0.660438 7.37842L6.56149 13.3268Z" fill="#fff"/>
<path d="M6.56149 13.3268L6.56154 13.3268L6.56755 13.3331C6.61786 13.3856 6.67781 13.4272 6.74381 13.4558C6.80979 13.4844 6.88061 13.4994 6.95216 13.5C7.02372 13.5006 7.09477 13.4869 7.16122 13.4595C7.22768 13.4321 7.28832 13.3915 7.3395 13.3399C7.3907 13.2883 7.4314 13.2267 7.45903 13.1586C7.48666 13.0905 7.50062 13.0174 7.49998 12.9436C7.49934 12.8699 7.48413 12.797 7.45533 12.7295C7.42654 12.6619 7.3848 12.6011 7.33275 12.5504L7.3327 12.5504L7.32657 12.5443L2.16298 7.33922L1.81365 6.98708L2.16298 6.63494L7.32303 1.43346C7.42087 1.32998 7.47559 1.19133 7.47434 1.0467C7.47309 0.900825 7.41501 0.762077 7.31387 0.660122L7.66414 0.312644L7.31387 0.660121C7.21285 0.558292 7.07703 0.501255 6.9359 0.500019C6.79596 0.498794 6.66034 0.552509 6.55792 0.650903L0.660438 6.59573C0.660421 6.59575 0.660403 6.59577 0.660385 6.59579C0.558145 6.69891 0.5 6.83958 0.5 6.98708C0.5 7.13461 0.558165 7.2753 0.660438 7.37842L6.56149 13.3268Z" fill="url(#paint0_linear_204_9651)"/>
<path d="M6.56149 13.3268L6.56154 13.3268L6.56755 13.3331C6.61786 13.3856 6.67781 13.4272 6.74381 13.4558C6.80979 13.4844 6.88061 13.4994 6.95216 13.5C7.02372 13.5006 7.09477 13.4869 7.16122 13.4595C7.22768 13.4321 7.28832 13.3915 7.3395 13.3399C7.3907 13.2883 7.4314 13.2267 7.45903 13.1586C7.48666 13.0905 7.50062 13.0174 7.49998 12.9436C7.49934 12.8699 7.48413 12.797 7.45533 12.7295C7.42654 12.6619 7.3848 12.6011 7.33275 12.5504L7.3327 12.5504L7.32657 12.5443L2.16298 7.33922L1.81365 6.98708L2.16298 6.63494L7.32303 1.43346C7.42087 1.32998 7.47559 1.19133 7.47434 1.0467C7.47309 0.900825 7.41501 0.762077 7.31387 0.660122L7.66414 0.312644L7.31387 0.660121C7.21285 0.558292 7.07703 0.501255 6.9359 0.500019C6.79596 0.498794 6.66034 0.552509 6.55792 0.650903L0.660438 6.59573C0.660421 6.59575 0.660403 6.59577 0.660385 6.59579C0.558145 6.69891 0.5 6.83958 0.5 6.98708C0.5 7.13461 0.558165 7.2753 0.660438 7.37842L6.56149 13.3268Z" stroke="white"/>
<path d="M6.56149 13.3268L6.56154 13.3268L6.56755 13.3331C6.61786 13.3856 6.67781 13.4272 6.74381 13.4558C6.80979 13.4844 6.88061 13.4994 6.95216 13.5C7.02372 13.5006 7.09477 13.4869 7.16122 13.4595C7.22768 13.4321 7.28832 13.3915 7.3395 13.3399C7.3907 13.2883 7.4314 13.2267 7.45903 13.1586C7.48666 13.0905 7.50062 13.0174 7.49998 12.9436C7.49934 12.8699 7.48413 12.797 7.45533 12.7295C7.42654 12.6619 7.3848 12.6011 7.33275 12.5504L7.3327 12.5504L7.32657 12.5443L2.16298 7.33922L1.81365 6.98708L2.16298 6.63494L7.32303 1.43346C7.42087 1.32998 7.47559 1.19133 7.47434 1.0467C7.47309 0.900825 7.41501 0.762077 7.31387 0.660122L7.66414 0.312644L7.31387 0.660121C7.21285 0.558292 7.07703 0.501255 6.9359 0.500019C6.79596 0.498794 6.66034 0.552509 6.55792 0.650903L0.660438 6.59573C0.660421 6.59575 0.660403 6.59577 0.660385 6.59579C0.558145 6.69891 0.5 6.83958 0.5 6.98708C0.5 7.13461 0.558165 7.2753 0.660438 7.37842L6.56149 13.3268Z" stroke="#fff"/>
<defs>
<linearGradient id="paint0_linear_204_9651" x1="4" y1="14" x2="4" y2="-1.74846e-07" gradientUnits="userSpaceOnUse">
<stop stop-color="#fff"/>
<stop offset="1" stop-color="#fff"/>
</linearGradient>
</defs>
</svg>
