<svg width="44" height="28" viewBox="0 0 44 28" fill="none" xmlns="http://www.w3.org/2000/svg">
<g clip-path="url(#clip0_584_821)">
<path d="M19.085 10.4496V10.4507C19.085 16.3678 15.0331 21.7796 10.0791 25.5924C10.8037 24.2424 11.4672 22.6783 11.7892 21.0679L12.0635 19.6962L10.6387 19.7864C8.85395 19.8994 7.0733 19.4555 5.52651 18.5054C3.97881 17.5548 2.73335 16.1389 1.96086 14.4333C1.18818 12.7274 0.927472 10.8167 1.21581 8.95116C1.50413 7.08577 2.32661 5.36047 3.56785 3.99676C4.80849 2.63371 6.4087 1.69579 8.15656 1.29412C9.9038 0.892591 11.7276 1.04301 13.3944 1.72837C15.062 2.41409 16.5022 3.6068 17.5209 5.16169C18.54 6.71713 19.0871 8.55956 19.085 10.4496Z" stroke="#FFA30C" stroke-width="2.15288"/>
<path d="M42.9054 10.4496V10.4507C42.9054 16.3685 38.855 21.7804 33.899 25.5932C34.6237 24.2429 35.2875 22.6786 35.6095 21.0679L35.8838 19.6962L34.459 19.7864C32.6743 19.8994 30.8936 19.4555 29.3468 18.5054C27.7991 17.5548 26.5537 16.1389 25.7811 14.4333C25.0085 12.7274 24.7478 10.8167 25.0361 8.95116C25.3244 7.08576 26.1469 5.36047 27.3881 3.99676C28.6288 2.63371 30.229 1.69579 31.9769 1.29412C33.7241 0.892591 35.5479 1.04301 37.2146 1.72837C38.8824 2.41409 40.3226 3.6068 41.3412 5.16169C42.3602 6.71713 42.9075 8.55956 42.9054 10.4496Z" stroke="#FFA30C" stroke-width="2.15288"/>
</g>
<defs>
<clipPath id="clip0_584_821">
<rect width="44" height="28" fill="white"/>
</clipPath>
</defs>
</svg>
