<svg width="34" height="40" viewBox="0 0 34 40" fill="none" xmlns="http://www.w3.org/2000/svg">
<path d="M18.1662 38.375C17.8257 38.618 17.4179 38.7486 16.9995 38.7486C16.5812 38.7486 16.1734 38.618 15.8329 38.375C5.77246 31.2042 -4.90462 16.4542 5.88913 5.79584C8.85133 2.87941 12.8426 1.24638 16.9995 1.25001C21.1662 1.25001 25.1641 2.88542 28.11 5.79376C38.9037 16.4521 28.2266 31.2 18.1662 38.375Z" stroke="#FFA30C" stroke-width="2.5" stroke-linecap="round" stroke-linejoin="round"/>
<path d="M17.0007 19.9993C18.1057 19.9993 19.1655 19.5604 19.9469 18.779C20.7283 17.9976 21.1673 16.9378 21.1673 15.8327C21.1673 14.7276 20.7283 13.6678 19.9469 12.8864C19.1655 12.105 18.1057 11.666 17.0007 11.666C15.8956 11.666 14.8358 12.105 14.0544 12.8864C13.273 13.6678 12.834 14.7276 12.834 15.8327C12.834 16.9378 13.273 17.9976 14.0544 18.779C14.8358 19.5604 15.8956 19.9993 17.0007 19.9993Z" stroke="#FFA30C" stroke-width="2.5" stroke-linecap="round" stroke-linejoin="round"/>
</svg>
