<svg width="292" height="292" viewBox="0 0 292 292" fill="none" xmlns="http://www.w3.org/2000/svg">
<g filter="url(#filter0_d_584_667)">
<path d="M13.3025 139.158L138.776 13.6843C142.681 9.77911 149.013 9.77911 152.918 13.6844L278.391 139.158C282.296 143.063 282.296 149.395 278.391 153.3L152.918 278.773C149.013 282.678 142.681 282.678 138.776 278.773L13.3025 153.3C9.39727 149.395 9.39727 143.063 13.3025 139.158Z" fill="white"/>
</g>
<path d="M104.726 99.3636V111H102.971V99.3636H104.726ZM108.846 105.818V111H107.147V102.273H108.778V103.693H108.886C109.086 103.231 109.401 102.86 109.829 102.58C110.261 102.299 110.804 102.159 111.459 102.159C112.054 102.159 112.575 102.284 113.022 102.534C113.469 102.78 113.815 103.148 114.062 103.636C114.308 104.125 114.431 104.729 114.431 105.449V111H112.732V105.653C112.732 105.021 112.567 104.527 112.238 104.17C111.908 103.811 111.456 103.631 110.88 103.631C110.486 103.631 110.136 103.716 109.829 103.886C109.526 104.057 109.285 104.307 109.107 104.636C108.933 104.962 108.846 105.356 108.846 105.818ZM122.601 114.273V109.642H122.499C122.397 109.828 122.249 110.04 122.056 110.278C121.867 110.517 121.605 110.725 121.272 110.903C120.939 111.081 120.507 111.17 119.976 111.17C119.272 111.17 118.643 110.991 118.09 110.631C117.541 110.267 117.109 109.75 116.795 109.08C116.484 108.405 116.329 107.597 116.329 106.653C116.329 105.71 116.486 104.903 116.8 104.233C117.119 103.562 117.554 103.049 118.107 102.693C118.66 102.337 119.287 102.159 119.988 102.159C120.53 102.159 120.965 102.25 121.295 102.432C121.628 102.61 121.886 102.818 122.067 103.057C122.253 103.295 122.397 103.506 122.499 103.688H122.641V102.273H124.3V114.273H122.601ZM120.351 109.722C120.84 109.722 121.253 109.593 121.59 109.335C121.931 109.074 122.189 108.712 122.363 108.25C122.541 107.788 122.63 107.25 122.63 106.636C122.63 106.03 122.543 105.5 122.369 105.045C122.194 104.591 121.939 104.237 121.601 103.983C121.264 103.729 120.848 103.602 120.351 103.602C119.84 103.602 119.414 103.735 119.073 104C118.732 104.265 118.475 104.627 118.3 105.085C118.13 105.544 118.045 106.061 118.045 106.636C118.045 107.22 118.132 107.744 118.306 108.21C118.48 108.676 118.738 109.045 119.079 109.318C119.423 109.587 119.848 109.722 120.351 109.722ZM132.113 107.381V102.273H133.817V111H132.147V109.489H132.056C131.855 109.955 131.533 110.343 131.09 110.653C130.651 110.96 130.103 111.114 129.448 111.114C128.887 111.114 128.391 110.991 127.959 110.744C127.531 110.494 127.194 110.125 126.948 109.636C126.706 109.148 126.584 108.544 126.584 107.824V102.273H128.283V107.619C128.283 108.214 128.448 108.687 128.778 109.04C129.107 109.392 129.535 109.568 130.062 109.568C130.38 109.568 130.696 109.489 131.011 109.33C131.329 109.17 131.592 108.93 131.8 108.608C132.012 108.286 132.117 107.877 132.113 107.381ZM136.1 111V102.273H137.799V111H136.1ZM136.958 100.926C136.663 100.926 136.409 100.828 136.197 100.631C135.988 100.43 135.884 100.191 135.884 99.9148C135.884 99.6345 135.988 99.3958 136.197 99.1989C136.409 98.9981 136.663 98.8977 136.958 98.8977C137.253 98.8977 137.505 98.9981 137.714 99.1989C137.926 99.3958 138.032 99.6345 138.032 99.9148C138.032 100.191 137.926 100.43 137.714 100.631C137.505 100.828 137.253 100.926 136.958 100.926ZM140.084 111V102.273H141.726V103.659H141.817C141.976 103.189 142.257 102.82 142.658 102.551C143.064 102.278 143.522 102.142 144.033 102.142C144.139 102.142 144.264 102.146 144.408 102.153C144.556 102.161 144.672 102.17 144.755 102.182V103.807C144.687 103.788 144.565 103.767 144.391 103.744C144.217 103.718 144.043 103.705 143.869 103.705C143.467 103.705 143.109 103.79 142.795 103.96C142.484 104.127 142.238 104.36 142.056 104.659C141.874 104.955 141.783 105.292 141.783 105.67V111H140.084ZM149.674 111.176C148.814 111.176 148.074 110.992 147.452 110.625C146.835 110.254 146.358 109.733 146.021 109.062C145.687 108.388 145.521 107.598 145.521 106.693C145.521 105.799 145.687 105.011 146.021 104.33C146.358 103.648 146.827 103.116 147.43 102.733C148.036 102.35 148.744 102.159 149.555 102.159C150.047 102.159 150.524 102.241 150.986 102.403C151.449 102.566 151.863 102.822 152.231 103.17C152.598 103.519 152.888 103.972 153.1 104.528C153.312 105.081 153.418 105.754 153.418 106.545V107.148H146.481V105.875H151.753C151.753 105.428 151.663 105.032 151.481 104.688C151.299 104.339 151.043 104.064 150.714 103.864C150.388 103.663 150.005 103.562 149.566 103.562C149.089 103.562 148.672 103.68 148.316 103.915C147.964 104.146 147.691 104.449 147.498 104.824C147.308 105.195 147.214 105.598 147.214 106.034V107.028C147.214 107.612 147.316 108.108 147.521 108.517C147.729 108.926 148.019 109.239 148.39 109.455C148.761 109.667 149.195 109.773 149.691 109.773C150.013 109.773 150.306 109.727 150.572 109.636C150.837 109.542 151.066 109.402 151.259 109.216C151.452 109.03 151.6 108.801 151.702 108.528L153.31 108.818C153.181 109.292 152.95 109.706 152.617 110.062C152.288 110.415 151.873 110.689 151.373 110.886C150.877 111.08 150.31 111.176 149.674 111.176ZM161.236 105.818V111H159.538V102.273H161.168V103.693H161.276C161.477 103.231 161.791 102.86 162.219 102.58C162.651 102.299 163.195 102.159 163.85 102.159C164.445 102.159 164.966 102.284 165.413 102.534C165.86 102.78 166.206 103.148 166.452 103.636C166.699 104.125 166.822 104.729 166.822 105.449V111H165.123V105.653C165.123 105.021 164.958 104.527 164.628 104.17C164.299 103.811 163.846 103.631 163.271 103.631C162.877 103.631 162.526 103.716 162.219 103.886C161.916 104.057 161.676 104.307 161.498 104.636C161.324 104.962 161.236 105.356 161.236 105.818ZM172.776 111.176C171.958 111.176 171.244 110.989 170.634 110.614C170.024 110.239 169.551 109.714 169.214 109.04C168.877 108.366 168.708 107.578 168.708 106.676C168.708 105.771 168.877 104.979 169.214 104.301C169.551 103.623 170.024 103.097 170.634 102.722C171.244 102.347 171.958 102.159 172.776 102.159C173.594 102.159 174.308 102.347 174.918 102.722C175.528 103.097 176.002 103.623 176.339 104.301C176.676 104.979 176.844 105.771 176.844 106.676C176.844 107.578 176.676 108.366 176.339 109.04C176.002 109.714 175.528 110.239 174.918 110.614C174.308 110.989 173.594 111.176 172.776 111.176ZM172.782 109.75C173.312 109.75 173.752 109.61 174.1 109.33C174.449 109.049 174.706 108.676 174.873 108.21C175.043 107.744 175.128 107.231 175.128 106.67C175.128 106.114 175.043 105.602 174.873 105.136C174.706 104.667 174.449 104.29 174.1 104.006C173.752 103.722 173.312 103.58 172.782 103.58C172.248 103.58 171.805 103.722 171.452 104.006C171.104 104.29 170.844 104.667 170.674 105.136C170.507 105.602 170.424 106.114 170.424 106.67C170.424 107.231 170.507 107.744 170.674 108.21C170.844 108.676 171.104 109.049 171.452 109.33C171.805 109.61 172.248 109.75 172.782 109.75ZM180.367 111L177.799 102.273H179.555L181.265 108.682H181.35L183.066 102.273H184.822L186.526 108.653H186.611L188.31 102.273H190.066L187.503 111H185.771L183.998 104.699H183.867L182.094 111H180.367Z" fill="#FFA30C"/>
<path d="M78.3569 130.82C78.8636 130.9 79.3236 131.107 79.7369 131.44C80.1636 131.773 80.4969 132.187 80.7369 132.68C80.9902 133.173 81.1169 133.7 81.1169 134.26C81.1169 134.967 80.9369 135.607 80.5769 136.18C80.2169 136.74 79.6902 137.187 78.9969 137.52C78.3169 137.84 77.5102 138 76.5769 138H71.3769V124.06H76.3769C77.3236 124.06 78.1302 124.22 78.7969 124.54C79.4636 124.847 79.9636 125.267 80.2969 125.8C80.6302 126.333 80.7969 126.933 80.7969 127.6C80.7969 128.427 80.5702 129.113 80.1169 129.66C79.6769 130.193 79.0902 130.58 78.3569 130.82ZM73.1969 130.08H76.2569C77.1102 130.08 77.7702 129.88 78.2369 129.48C78.7036 129.08 78.9369 128.527 78.9369 127.82C78.9369 127.113 78.7036 126.56 78.2369 126.16C77.7702 125.76 77.0969 125.56 76.2169 125.56H73.1969V130.08ZM76.4169 136.5C77.3236 136.5 78.0302 136.287 78.5369 135.86C79.0436 135.433 79.2969 134.84 79.2969 134.08C79.2969 133.307 79.0302 132.7 78.4969 132.26C77.9636 131.807 77.2502 131.58 76.3569 131.58H73.1969V136.5H76.4169ZM93.6425 132.1C93.6425 132.447 93.6225 132.813 93.5825 133.2H84.8225C84.8892 134.28 85.2559 135.127 85.9225 135.74C86.6025 136.34 87.4225 136.64 88.3825 136.64C89.1692 136.64 89.8225 136.46 90.3425 136.1C90.8759 135.727 91.2492 135.233 91.4625 134.62H93.4225C93.1292 135.673 92.5425 136.533 91.6625 137.2C90.7825 137.853 89.6892 138.18 88.3825 138.18C87.3425 138.18 86.4092 137.947 85.5825 137.48C84.7692 137.013 84.1292 136.353 83.6625 135.5C83.1959 134.633 82.9625 133.633 82.9625 132.5C82.9625 131.367 83.1892 130.373 83.6425 129.52C84.0959 128.667 84.7292 128.013 85.5425 127.56C86.3692 127.093 87.3159 126.86 88.3825 126.86C89.4225 126.86 90.3425 127.087 91.1425 127.54C91.9425 127.993 92.5559 128.62 92.9825 129.42C93.4225 130.207 93.6425 131.1 93.6425 132.1ZM91.7625 131.72C91.7625 131.027 91.6092 130.433 91.3025 129.94C90.9959 129.433 90.5759 129.053 90.0425 128.8C89.5225 128.533 88.9425 128.4 88.3025 128.4C87.3825 128.4 86.5959 128.693 85.9425 129.28C85.3025 129.867 84.9359 130.68 84.8425 131.72H91.7625ZM100.697 132.48C100.697 131.36 100.924 130.38 101.377 129.54C101.83 128.687 102.45 128.027 103.237 127.56C104.037 127.093 104.924 126.86 105.897 126.86C106.857 126.86 107.69 127.067 108.397 127.48C109.104 127.893 109.63 128.413 109.977 129.04V127.04H111.817V138H109.977V135.96C109.617 136.6 109.077 137.133 108.357 137.56C107.65 137.973 106.824 138.18 105.877 138.18C104.904 138.18 104.024 137.94 103.237 137.46C102.45 136.98 101.83 136.307 101.377 135.44C100.924 134.573 100.697 133.587 100.697 132.48ZM109.977 132.5C109.977 131.673 109.81 130.953 109.477 130.34C109.144 129.727 108.69 129.26 108.117 128.94C107.557 128.607 106.937 128.44 106.257 128.44C105.577 128.44 104.957 128.6 104.397 128.92C103.837 129.24 103.39 129.707 103.057 130.32C102.724 130.933 102.557 131.653 102.557 132.48C102.557 133.32 102.724 134.053 103.057 134.68C103.39 135.293 103.837 135.767 104.397 136.1C104.957 136.42 105.577 136.58 106.257 136.58C106.937 136.58 107.557 136.42 108.117 136.1C108.69 135.767 109.144 135.293 109.477 134.68C109.81 134.053 109.977 133.327 109.977 132.5ZM122.045 129.06C122.405 128.433 122.938 127.913 123.645 127.5C124.365 127.073 125.198 126.86 126.145 126.86C127.118 126.86 127.998 127.093 128.785 127.56C129.585 128.027 130.211 128.687 130.665 129.54C131.118 130.38 131.345 131.36 131.345 132.48C131.345 133.587 131.118 134.573 130.665 135.44C130.211 136.307 129.585 136.98 128.785 137.46C127.998 137.94 127.118 138.18 126.145 138.18C125.211 138.18 124.385 137.973 123.665 137.56C122.958 137.133 122.418 136.607 122.045 135.98V143.2H120.225V127.04H122.045V129.06ZM129.485 132.48C129.485 131.653 129.318 130.933 128.985 130.32C128.651 129.707 128.198 129.24 127.625 128.92C127.065 128.6 126.445 128.44 125.765 128.44C125.098 128.44 124.478 128.607 123.905 128.94C123.345 129.26 122.891 129.733 122.545 130.36C122.211 130.973 122.045 131.687 122.045 132.5C122.045 133.327 122.211 134.053 122.545 134.68C122.891 135.293 123.345 135.767 123.905 136.1C124.478 136.42 125.098 136.58 125.765 136.58C126.445 136.58 127.065 136.42 127.625 136.1C128.198 135.767 128.651 135.293 128.985 134.68C129.318 134.053 129.485 133.32 129.485 132.48ZM133.06 132.48C133.06 131.36 133.287 130.38 133.74 129.54C134.194 128.687 134.814 128.027 135.6 127.56C136.4 127.093 137.287 126.86 138.26 126.86C139.22 126.86 140.054 127.067 140.76 127.48C141.467 127.893 141.994 128.413 142.34 129.04V127.04H144.18V138H142.34V135.96C141.98 136.6 141.44 137.133 140.72 137.56C140.014 137.973 139.187 138.18 138.24 138.18C137.267 138.18 136.387 137.94 135.6 137.46C134.814 136.98 134.194 136.307 133.74 135.44C133.287 134.573 133.06 133.587 133.06 132.48ZM142.34 132.5C142.34 131.673 142.174 130.953 141.84 130.34C141.507 129.727 141.054 129.26 140.48 128.94C139.92 128.607 139.3 128.44 138.62 128.44C137.94 128.44 137.32 128.6 136.76 128.92C136.2 129.24 135.754 129.707 135.42 130.32C135.087 130.933 134.92 131.653 134.92 132.48C134.92 133.32 135.087 134.053 135.42 134.68C135.754 135.293 136.2 135.767 136.76 136.1C137.32 136.42 137.94 136.58 138.62 136.58C139.3 136.58 139.92 136.42 140.48 136.1C141.054 135.767 141.507 135.293 141.84 134.68C142.174 134.053 142.34 133.327 142.34 132.5ZM149.076 128.82C149.396 128.193 149.849 127.707 150.436 127.36C151.036 127.013 151.762 126.84 152.616 126.84V128.72H152.136C150.096 128.72 149.076 129.827 149.076 132.04V138H147.256V127.04H149.076V128.82ZM156.937 128.54V135C156.937 135.533 157.05 135.913 157.277 136.14C157.503 136.353 157.897 136.46 158.457 136.46H159.797V138H158.157C157.143 138 156.383 137.767 155.877 137.3C155.37 136.833 155.117 136.067 155.117 135V128.54H153.697V127.04H155.117V124.28H156.937V127.04H159.797V128.54H156.937ZM172.114 138.18C171.087 138.18 170.154 137.947 169.314 137.48C168.487 137.013 167.834 136.353 167.354 135.5C166.887 134.633 166.654 133.633 166.654 132.5C166.654 131.38 166.894 130.393 167.374 129.54C167.867 128.673 168.534 128.013 169.374 127.56C170.214 127.093 171.154 126.86 172.194 126.86C173.234 126.86 174.174 127.093 175.014 127.56C175.854 128.013 176.514 128.667 176.994 129.52C177.487 130.373 177.734 131.367 177.734 132.5C177.734 133.633 177.481 134.633 176.974 135.5C176.481 136.353 175.807 137.013 174.954 137.48C174.101 137.947 173.154 138.18 172.114 138.18ZM172.114 136.58C172.767 136.58 173.381 136.427 173.954 136.12C174.527 135.813 174.987 135.353 175.334 134.74C175.694 134.127 175.874 133.38 175.874 132.5C175.874 131.62 175.701 130.873 175.354 130.26C175.007 129.647 174.554 129.193 173.994 128.9C173.434 128.593 172.827 128.44 172.174 128.44C171.507 128.44 170.894 128.593 170.334 128.9C169.787 129.193 169.347 129.647 169.014 130.26C168.681 130.873 168.514 131.62 168.514 132.5C168.514 133.393 168.674 134.147 168.994 134.76C169.327 135.373 169.767 135.833 170.314 136.14C170.861 136.433 171.461 136.58 172.114 136.58ZM184.587 128.54H182.287V138H180.467V128.54H179.047V127.04H180.467V126.26C180.467 125.033 180.78 124.14 181.407 123.58C182.047 123.007 183.067 122.72 184.467 122.72V124.24C183.667 124.24 183.1 124.4 182.767 124.72C182.447 125.027 182.287 125.54 182.287 126.26V127.04H184.587V128.54ZM196.821 138.18C195.794 138.18 194.861 137.947 194.021 137.48C193.194 137.013 192.541 136.353 192.061 135.5C191.594 134.633 191.361 133.633 191.361 132.5C191.361 131.38 191.601 130.393 192.081 129.54C192.574 128.673 193.241 128.013 194.081 127.56C194.921 127.093 195.861 126.86 196.901 126.86C197.941 126.86 198.881 127.093 199.721 127.56C200.561 128.013 201.221 128.667 201.701 129.52C202.194 130.373 202.441 131.367 202.441 132.5C202.441 133.633 202.188 134.633 201.681 135.5C201.188 136.353 200.514 137.013 199.661 137.48C198.808 137.947 197.861 138.18 196.821 138.18ZM196.821 136.58C197.474 136.58 198.088 136.427 198.661 136.12C199.234 135.813 199.694 135.353 200.041 134.74C200.401 134.127 200.581 133.38 200.581 132.5C200.581 131.62 200.408 130.873 200.061 130.26C199.714 129.647 199.261 129.193 198.701 128.9C198.141 128.593 197.534 128.44 196.881 128.44C196.214 128.44 195.601 128.593 195.041 128.9C194.494 129.193 194.054 129.647 193.721 130.26C193.388 130.873 193.221 131.62 193.221 132.5C193.221 133.393 193.381 134.147 193.701 134.76C194.034 135.373 194.474 135.833 195.021 136.14C195.568 136.433 196.168 136.58 196.821 136.58ZM214.554 127.04V138H212.734V136.38C212.387 136.94 211.901 137.38 211.274 137.7C210.661 138.007 209.981 138.16 209.234 138.16C208.381 138.16 207.614 137.987 206.934 137.64C206.254 137.28 205.714 136.747 205.314 136.04C204.927 135.333 204.734 134.473 204.734 133.46V127.04H206.534V133.22C206.534 134.3 206.807 135.133 207.354 135.72C207.901 136.293 208.647 136.58 209.594 136.58C210.567 136.58 211.334 136.28 211.894 135.68C212.454 135.08 212.734 134.207 212.734 133.06V127.04H214.554ZM219.447 128.82C219.767 128.193 220.22 127.707 220.807 127.36C221.407 127.013 222.134 126.84 222.987 126.84V128.72H222.507C220.467 128.72 219.447 129.827 219.447 132.04V138H217.627V127.04H219.447V128.82ZM81.82 161.02C81.82 159.66 82.1266 158.44 82.74 157.36C83.3533 156.267 84.1866 155.413 85.24 154.8C86.3066 154.187 87.4866 153.88 88.78 153.88C90.3 153.88 91.6266 154.247 92.76 154.98C93.8933 155.713 94.72 156.753 95.24 158.1H93.06C92.6733 157.26 92.1133 156.613 91.38 156.16C90.66 155.707 89.7933 155.48 88.78 155.48C87.8066 155.48 86.9333 155.707 86.16 156.16C85.3866 156.613 84.78 157.26 84.34 158.1C83.9 158.927 83.68 159.9 83.68 161.02C83.68 162.127 83.9 163.1 84.34 163.94C84.78 164.767 85.3866 165.407 86.16 165.86C86.9333 166.313 87.8066 166.54 88.78 166.54C89.7933 166.54 90.66 166.32 91.38 165.88C92.1133 165.427 92.6733 164.78 93.06 163.94H95.24C94.72 165.273 93.8933 166.307 92.76 167.04C91.6266 167.76 90.3 168.12 88.78 168.12C87.4866 168.12 86.3066 167.82 85.24 167.22C84.1866 166.607 83.3533 165.76 82.74 164.68C82.1266 163.6 81.82 162.38 81.82 161.02ZM99.7692 153.2V168H97.9492V153.2H99.7692ZM103.811 155.26C103.464 155.26 103.171 155.14 102.931 154.9C102.691 154.66 102.571 154.367 102.571 154.02C102.571 153.673 102.691 153.38 102.931 153.14C103.171 152.9 103.464 152.78 103.811 152.78C104.144 152.78 104.424 152.9 104.651 153.14C104.891 153.38 105.011 153.673 105.011 154.02C105.011 154.367 104.891 154.66 104.651 154.9C104.424 155.14 104.144 155.26 103.811 155.26ZM104.691 157.04V168H102.871V157.04H104.691ZM117.793 162.1C117.793 162.447 117.773 162.813 117.733 163.2H108.973C109.04 164.28 109.406 165.127 110.073 165.74C110.753 166.34 111.573 166.64 112.533 166.64C113.32 166.64 113.973 166.46 114.493 166.1C115.026 165.727 115.4 165.233 115.613 164.62H117.573C117.28 165.673 116.693 166.533 115.813 167.2C114.933 167.853 113.84 168.18 112.533 168.18C111.493 168.18 110.56 167.947 109.733 167.48C108.92 167.013 108.28 166.353 107.813 165.5C107.346 164.633 107.113 163.633 107.113 162.5C107.113 161.367 107.34 160.373 107.793 159.52C108.246 158.667 108.88 158.013 109.693 157.56C110.52 157.093 111.466 156.86 112.533 156.86C113.573 156.86 114.493 157.087 115.293 157.54C116.093 157.993 116.706 158.62 117.133 159.42C117.573 160.207 117.793 161.1 117.793 162.1ZM115.913 161.72C115.913 161.027 115.76 160.433 115.453 159.94C115.146 159.433 114.726 159.053 114.193 158.8C113.673 158.533 113.093 158.4 112.453 158.4C111.533 158.4 110.746 158.693 110.093 159.28C109.453 159.867 109.086 160.68 108.993 161.72H115.913ZM125.535 156.84C126.869 156.84 127.949 157.247 128.775 158.06C129.602 158.86 130.015 160.02 130.015 161.54V168H128.215V161.8C128.215 160.707 127.942 159.873 127.395 159.3C126.849 158.713 126.102 158.42 125.155 158.42C124.195 158.42 123.429 158.72 122.855 159.32C122.295 159.92 122.015 160.793 122.015 161.94V168H120.195V157.04H122.015V158.6C122.375 158.04 122.862 157.607 123.475 157.3C124.102 156.993 124.789 156.84 125.535 156.84ZM135.208 158.54V165C135.208 165.533 135.322 165.913 135.548 166.14C135.775 166.353 136.168 166.46 136.728 166.46H138.068V168H136.428C135.415 168 134.655 167.767 134.148 167.3C133.642 166.833 133.388 166.067 133.388 165V158.54H131.968V157.04H133.388V154.28H135.208V157.04H138.068V158.54H135.208ZM156.165 158.1C155.779 157.287 155.219 156.66 154.485 156.22C153.752 155.767 152.899 155.54 151.925 155.54C150.952 155.54 150.072 155.767 149.285 156.22C148.512 156.66 147.899 157.3 147.445 158.14C147.005 158.967 146.785 159.927 146.785 161.02C146.785 162.113 147.005 163.073 147.445 163.9C147.899 164.727 148.512 165.367 149.285 165.82C150.072 166.26 150.952 166.48 151.925 166.48C153.285 166.48 154.405 166.073 155.285 165.26C156.165 164.447 156.679 163.347 156.825 161.96H151.265V160.48H158.765V161.88C158.659 163.027 158.299 164.08 157.685 165.04C157.072 165.987 156.265 166.74 155.265 167.3C154.265 167.847 153.152 168.12 151.925 168.12C150.632 168.12 149.452 167.82 148.385 167.22C147.319 166.607 146.472 165.76 145.845 164.68C145.232 163.6 144.925 162.38 144.925 161.02C144.925 159.66 145.232 158.44 145.845 157.36C146.472 156.267 147.319 155.42 148.385 154.82C149.452 154.207 150.632 153.9 151.925 153.9C153.405 153.9 154.712 154.267 155.845 155C156.992 155.733 157.825 156.767 158.345 158.1H156.165ZM160.492 162.48C160.492 161.36 160.719 160.38 161.172 159.54C161.625 158.687 162.245 158.027 163.032 157.56C163.832 157.093 164.719 156.86 165.692 156.86C166.652 156.86 167.485 157.067 168.192 157.48C168.899 157.893 169.425 158.413 169.772 159.04V157.04H171.612V168H169.772V165.96C169.412 166.6 168.872 167.133 168.152 167.56C167.445 167.973 166.619 168.18 165.672 168.18C164.699 168.18 163.819 167.94 163.032 167.46C162.245 166.98 161.625 166.307 161.172 165.44C160.719 164.573 160.492 163.587 160.492 162.48ZM169.772 162.5C169.772 161.673 169.605 160.953 169.272 160.34C168.939 159.727 168.485 159.26 167.912 158.94C167.352 158.607 166.732 158.44 166.052 158.44C165.372 158.44 164.752 158.6 164.192 158.92C163.632 159.24 163.185 159.707 162.852 160.32C162.519 160.933 162.352 161.653 162.352 162.48C162.352 163.32 162.519 164.053 162.852 164.68C163.185 165.293 163.632 165.767 164.192 166.1C164.752 166.42 165.372 166.58 166.052 166.58C166.732 166.58 167.352 166.42 167.912 166.1C168.485 165.767 168.939 165.293 169.272 164.68C169.605 164.053 169.772 163.327 169.772 162.5ZM176.507 153.2V168H174.687V153.2H176.507ZM178.929 162.48C178.929 161.36 179.156 160.38 179.609 159.54C180.063 158.687 180.683 158.027 181.469 157.56C182.269 157.093 183.156 156.86 184.129 156.86C185.089 156.86 185.923 157.067 186.629 157.48C187.336 157.893 187.863 158.413 188.209 159.04V157.04H190.049V168H188.209V165.96C187.849 166.6 187.309 167.133 186.589 167.56C185.883 167.973 185.056 168.18 184.109 168.18C183.136 168.18 182.256 167.94 181.469 167.46C180.683 166.98 180.063 166.307 179.609 165.44C179.156 164.573 178.929 163.587 178.929 162.48ZM188.209 162.5C188.209 161.673 188.043 160.953 187.709 160.34C187.376 159.727 186.923 159.26 186.349 158.94C185.789 158.607 185.169 158.44 184.489 158.44C183.809 158.44 183.189 158.6 182.629 158.92C182.069 159.24 181.623 159.707 181.289 160.32C180.956 160.933 180.789 161.653 180.789 162.48C180.789 163.32 180.956 164.053 181.289 164.68C181.623 165.293 182.069 165.767 182.629 166.1C183.189 166.42 183.809 166.58 184.489 166.58C185.169 166.58 185.789 166.42 186.349 166.1C186.923 165.767 187.376 165.293 187.709 164.68C188.043 164.053 188.209 163.327 188.209 162.5ZM198.845 168L196.245 163.92L193.745 168H191.845L195.385 162.56L191.845 157.04H193.905L196.505 161.1L198.985 157.04H200.885L197.365 162.46L200.905 168H198.845ZM212.135 157.04L205.535 173.16H203.655L205.815 167.88L201.395 157.04H203.415L206.855 165.92L210.255 157.04H212.135Z" fill="#292F3B"/>
<path d="M144.915 195.68C133.672 195.68 124.555 204.797 124.555 216.04C124.555 227.284 133.672 236.401 144.915 236.401C156.159 236.401 165.276 227.284 165.276 216.04C165.276 204.797 156.159 195.68 144.915 195.68ZM151.946 216.336L140.766 224.425C140.525 224.598 140.189 224.425 140.189 224.13V221.998C140.189 221.535 140.411 221.094 140.789 220.821L147.397 216.04L140.789 211.259C140.411 210.986 140.189 210.55 140.189 210.082V207.951C140.189 207.655 140.525 207.482 140.766 207.655L151.946 215.745C152.146 215.89 152.146 216.19 151.946 216.336Z" fill="#FFA30C"/>
<defs>
<filter id="filter0_d_584_667" x="0.374023" y="0.755417" width="290.946" height="290.946" filterUnits="userSpaceOnUse" color-interpolation-filters="sRGB">
<feFlood flood-opacity="0" result="BackgroundImageFix"/>
<feColorMatrix in="SourceAlpha" type="matrix" values="0 0 0 0 0 0 0 0 0 0 0 0 0 0 0 0 0 0 127 0" result="hardAlpha"/>
<feOffset/>
<feGaussianBlur stdDeviation="5"/>
<feComposite in2="hardAlpha" operator="out"/>
<feColorMatrix type="matrix" values="0 0 0 0 0 0 0 0 0 0 0 0 0 0 0 0 0 0 0.25 0"/>
<feBlend mode="normal" in2="BackgroundImageFix" result="effect1_dropShadow_584_667"/>
<feBlend mode="normal" in="SourceGraphic" in2="effect1_dropShadow_584_667" result="shape"/>
</filter>
</defs>
</svg>
