<svg width="100" height="100" viewBox="0 0 100 100" fill="none" xmlns="http://www.w3.org/2000/svg">
<rect width="100" height="100" rx="50" fill="#F6EDFF"/>
<g clip-path="url(#clip0_1801_5678)">
<path d="M64.7734 46.875H56.1641V41.732L50.5 36.3398L44.8359 41.732V46.875H36.2266V53.8984H44.8359V62.9609H38.0391V55.7109H36.2266V64.7734H64.7734V55.7109H62.9609V62.9609H56.1641V53.8984H64.7734V46.875ZM44.8359 52.0859H38.0391V48.6875H44.8359V52.0859ZM54.3516 62.9609H51.4062V57.9766H49.5938V62.9609H46.6484V42.5023L50.5 38.832L54.3516 42.5023V62.9609ZM62.9609 52.0859H56.1641V48.6875H62.9609V52.0859Z" fill="#C805F9"/>
<path d="M42.5703 57.9766H40.3047V60.2422H42.5703V57.9766Z" fill="#C805F9"/>
<path d="M60.6953 57.9766H58.4297V60.2422H60.6953V57.9766Z" fill="#C805F9"/>
<path d="M51.4062 42.5703H49.5938V44.3828H51.4062V42.5703Z" fill="#C805F9"/>
</g>
<defs>
<clipPath id="clip0_1801_5678">
<rect width="29" height="29" fill="white" transform="translate(36 36)"/>
</clipPath>
</defs>
</svg>
