<svg width="100" height="100" viewBox="0 0 100 100" fill="none" xmlns="http://www.w3.org/2000/svg">
<rect width="100" height="100" rx="50" fill="#FFF3F3"/>
<path fill-rule="evenodd" clip-rule="evenodd" d="M53.75 39.2678V43.75H58.2322L53.75 39.2678ZM58.75 46.25H53.75C52.3693 46.25 51.25 45.1307 51.25 43.75V38.75H41.25V61.25H58.75V46.25ZM41.25 36.25H54.2678L61.25 43.2322V61.25C61.25 62.6307 60.1307 63.75 58.75 63.75H41.25C39.8693 63.75 38.75 62.6307 38.75 61.25V38.75C38.75 37.3693 39.8693 36.25 41.25 36.25ZM51.25 51.7678V57.5H48.75V51.7678L47.1339 53.3839L45.3661 51.6161L50 46.9822L54.6339 51.6161L52.8661 53.3839L51.25 51.7678Z" fill="#FF292D"/>
</svg>
