<svg width="100" height="100" viewBox="0 0 100 100" fill="none" xmlns="http://www.w3.org/2000/svg">
<rect width="100" height="100" rx="50" fill="#EDF1FF"/>
<path d="M50 52.25C53.1066 52.25 55.625 49.7316 55.625 46.625C55.625 43.5184 53.1066 41 50 41C46.8934 41 44.375 43.5184 44.375 46.625C44.375 49.7316 46.8934 52.25 50 52.25Z" stroke="#1D38BC" stroke-width="2" stroke-linecap="round" stroke-linejoin="round"/>
<path d="M57.875 63.5C57.875 61.4114 57.0453 59.4084 55.5685 57.9315C54.0916 56.4547 52.0886 55.625 50 55.625C47.9114 55.625 45.9084 56.4547 44.4315 57.9315C42.9547 59.4084 42.125 61.4114 42.125 63.5H57.875Z" stroke="#1D38BC" stroke-width="2" stroke-linecap="round" stroke-linejoin="round"/>
<path d="M59 47.75C59.9588 47.75 60.9017 47.5049 61.7392 47.038C62.5766 46.5711 63.2808 45.8979 63.7849 45.0822C64.289 44.2666 64.5762 43.3357 64.6193 42.3778C64.6624 41.42 64.4599 40.467 64.0312 39.6094C63.6024 38.7518 62.9615 38.0181 62.1693 37.4778C61.3772 36.9376 60.4601 36.6088 59.5052 36.5227C58.5502 36.4366 57.5891 36.596 56.7131 36.9859C55.8371 37.3757 55.0753 37.9829 54.5 38.75" stroke="#1D38BC" stroke-width="2" stroke-linecap="round" stroke-linejoin="round"/>
<path d="M60.125 59H66.875C66.875 56.9114 66.0453 54.9084 64.5685 53.4315C63.0916 51.9547 61.0886 51.125 59 51.125" stroke="#1D38BC" stroke-width="2" stroke-linecap="round" stroke-linejoin="round"/>
<path d="M45.5 38.75C44.9247 37.9829 44.1629 37.3757 43.2869 36.9859C42.4109 36.596 41.4498 36.4366 40.4948 36.5227C39.5399 36.6088 38.6228 36.9376 37.8307 37.4778C37.0385 38.0181 36.3976 38.7518 35.9688 39.6094C35.5401 40.467 35.3376 41.42 35.3807 42.3778C35.4238 43.3357 35.711 44.2666 36.2151 45.0822C36.7192 45.8979 37.4234 46.5711 38.2608 47.038C39.0983 47.5049 40.0412 47.75 41 47.75" stroke="#1D38BC" stroke-width="2" stroke-linecap="round" stroke-linejoin="round"/>
<path d="M41 51.125C38.9114 51.125 36.9084 51.9547 35.4315 53.4315C33.9547 54.9084 33.125 56.9114 33.125 59H39.875" stroke="#1D38BC" stroke-width="2" stroke-linecap="round" stroke-linejoin="round"/>
</svg>
