<svg width="100" height="100" viewBox="0 0 100 100" fill="none" xmlns="http://www.w3.org/2000/svg">
<rect width="100" height="100" rx="50" fill="#F1FFEB"/>
<g clip-path="url(#clip0_1801_5651)">
<path d="M60.5984 48.3268V35.672H39.9681C36.7579 35.672 34.1276 38.3023 34.1276 41.513V64.3279H60.5984V60.5135C57.5757 60.0798 55.3242 57.4797 55.3242 54.4199C55.3242 51.3602 57.5761 48.7601 60.5984 48.3268ZM37.7447 60.5985C36.5852 60.5985 36.5852 58.8352 37.7447 58.8352H50.2239C51.3835 58.8352 51.3835 60.5985 50.2239 60.5985H37.7447ZM37.7447 56.8278C36.5852 56.8278 36.5852 55.0645 37.7447 55.0645H50.2239C51.3835 55.0645 51.3835 56.8278 50.2239 56.8278H37.7447ZM37.7447 53.0572C36.5852 53.0572 36.5852 51.2939 37.7447 51.2939H50.2239C51.3835 51.2939 51.3835 53.0572 50.2239 53.0572H37.7447ZM48.6873 43.6751C47.5277 43.6751 47.5277 41.9122 48.6873 41.9122H56.1389C57.2984 41.9122 57.2984 43.6751 56.1389 43.6751H48.6873ZM48.6873 46.8173C47.5277 46.8173 47.5277 45.0545 48.6873 45.0545H56.1389C57.2984 45.0545 57.2984 46.8173 56.1389 46.8173H48.6873ZM38.5871 40.0265H45.5004C45.9868 40.0265 46.3818 40.4215 46.3818 40.9083V47.8212C46.3818 48.3081 45.9868 48.7027 45.5004 48.7027H38.5871C38.1002 48.7027 37.7056 48.3081 37.7056 47.8212V40.9083C37.7056 40.4215 38.1002 40.0265 38.5871 40.0265ZM44.6185 41.7898H39.4689V46.9398H44.6185V41.7898ZM65.873 54.4199C65.873 51.9937 63.9065 50.0272 61.4803 50.0272C59.0541 50.0272 57.0875 51.9937 57.0875 54.4199C57.0875 56.8461 59.0536 58.8127 61.4803 58.8127C63.906 58.8127 65.873 56.8457 65.873 54.4199ZM65.0728 59.4194L67.5075 64.1005C68.042 65.1286 66.4785 65.9416 65.944 64.9134L63.5102 60.2333C63.1419 60.3617 62.758 60.4565 62.3617 60.5135V65.2094C62.3617 65.6962 61.9671 66.0912 61.4803 66.0912H33.2461C32.7593 66.0912 32.3643 65.6962 32.3643 65.2094V41.513C32.3643 37.329 35.7841 33.9087 39.9681 33.9087H61.4803C61.9671 33.9087 62.3617 34.3037 62.3617 34.7906V48.3268C65.3845 48.7605 67.6363 51.3602 67.6363 54.4199C67.6363 56.4099 66.6822 58.2612 65.0728 59.4194Z" fill="#14AE48"/>
</g>
<defs>
<clipPath id="clip0_1801_5651">
<rect width="40" height="36" fill="white" transform="translate(30 32)"/>
</clipPath>
</defs>
</svg>
