<svg width="72" height="50" viewBox="0 0 72 50" fill="none" xmlns="http://www.w3.org/2000/svg">
<path d="M70.4116 7.82949C69.9985 6.31607 69.1928 4.93636 68.0747 3.82775C66.9567 2.71915 65.5652 1.92034 64.0389 1.51088C58.451 0 35.9636 0 35.9636 0C35.9636 0 13.4754 0.0458503 7.8884 1.55673C6.36219 1.96626 4.9708 2.7651 3.8528 3.8737C2.73479 4.9823 1.92917 6.36197 1.51616 7.87534C-0.173997 17.7201 -0.829716 32.7201 1.5624 42.1705C1.97541 43.6839 2.78103 45.0636 3.89903 46.1722C5.01704 47.2808 6.40843 48.0796 7.93463 48.4891C13.5221 50 36.0099 50 36.0099 50C36.0099 50 58.4977 50 64.0851 48.4891C65.6113 48.0796 67.0027 47.2808 68.1207 46.1722C69.2387 45.0636 70.0444 43.6839 70.4574 42.1705C72.2396 32.3123 72.7892 17.3214 70.4111 7.82993" fill="#FF0000"/>
<path d="M27 36L45 25.0002L27 14V36Z" fill="white"/>
</svg>
