<svg width="300" height="68" viewBox="0 0 300 68" fill="none" xmlns="http://www.w3.org/2000/svg">
<g clip-path="url(#clip0_204_7078)">
<path d="M93.6855 10.5107C93.1359 8.479 92.0639 6.62681 90.5762 5.13857C89.0886 3.65032 87.2372 2.57796 85.2064 2.02828C77.7714 0 47.8511 0 47.8511 0C47.8511 0 17.9296 0.0615517 10.4958 2.08983C8.46515 2.6396 6.61386 3.712 5.1263 5.20024C3.63875 6.68848 2.56684 8.54063 2.01732 10.5722C-0.23151 23.7883 -1.10397 43.9251 2.07884 56.6118C2.62836 58.6434 3.70027 60.4955 5.18783 61.9838C6.67538 63.472 8.52668 64.5444 10.5574 65.0942C17.9917 67.1224 47.9126 67.1224 47.9126 67.1224C47.9126 67.1224 77.8335 67.1224 85.2679 65.0942C87.2986 64.5444 89.1499 63.472 90.6374 61.9838C92.125 60.4955 93.1969 58.6434 93.7464 56.6118C96.1177 43.3775 96.849 23.2531 93.6849 10.5113" fill="#FF0000"/>
<path d="M38.3281 47.9466L63.1496 33.5634L38.3281 19.1797V47.9466Z" fill="white"/>
<path d="M287.66 20.8423C290.916 20.8423 293.374 21.4567 295.094 22.6244C296.814 23.7927 298.044 25.6363 298.781 28.157C299.518 30.6771 299.825 34.1187 299.825 38.5446V45.7368H284.035V47.9491L284.281 54.0345C284.465 55.3869 284.773 56.3705 285.264 56.9849C285.756 57.5998 286.554 57.907 287.599 57.907C289.012 57.907 289.995 57.3542 290.486 56.248C291.039 55.1413 291.285 53.2971 291.346 50.777L299.518 51.2688C299.579 51.6375 299.579 52.1293 299.579 52.7437C299.579 56.6162 298.535 59.5056 296.384 61.4108C294.234 63.3159 291.285 64.2996 287.414 64.2996C282.745 64.2996 279.489 62.8247 277.645 59.9359C275.803 57.0464 274.819 52.4975 274.819 46.4127V38.9749C275.028 28.5257 276.865 20.8728 287.66 20.8423ZM174.059 21.6413V52.4365C174.059 54.2807 174.243 55.6331 174.673 56.4321C175.545 58.1409 177.806 57.7042 179.035 56.8624C179.744 56.3827 180.316 55.726 180.694 54.9572V21.6407H190.094V63.6231H182.721L181.922 58.4598H181.738C179.711 62.3323 176.7 64.299 172.707 64.299C166.56 64.2838 165.056 59.8532 164.698 55.3535L164.675 55.0363C164.631 54.3548 164.605 53.6722 164.597 52.9893V21.6413H174.059ZM222.534 21.6413V52.4365C222.534 54.2807 222.718 55.6331 223.148 56.4321C224.021 58.1409 226.282 57.7042 227.511 56.8624C228.22 56.3827 228.792 55.726 229.17 54.9572V21.6407H238.57V63.6231H231.197L230.398 58.4598H230.214C228.187 62.3323 225.176 64.299 221.183 64.299C215.036 64.2838 213.532 59.8532 213.174 55.3535L213.151 55.0363C213.106 54.3548 213.08 53.6722 213.073 52.9893V21.6413H222.534ZM146.779 20.8423C149.851 20.8423 152.37 21.4567 154.213 22.7475C156.056 24.0383 157.47 26.0056 158.33 28.7098C159.19 31.4146 159.62 35.0408 159.62 39.5282V45.6131C159.62 50.1005 159.19 53.6658 158.33 56.37C157.47 59.0753 156.118 61.042 154.213 62.3329C152.309 63.5621 149.728 64.238 146.534 64.238C143.215 64.2996 140.635 63.6237 138.731 62.3944C136.826 61.1036 135.474 59.1363 134.676 56.4321C133.877 53.7273 133.508 50.162 133.508 45.6752V39.5892C133.508 35.1018 133.938 31.414 134.86 28.7092C135.782 25.9435 137.194 23.9762 139.161 22.7475C141.127 21.5176 143.646 20.8417 146.779 20.8417M253.315 4V26.1281H253.377C254.237 24.5301 255.343 23.2393 256.879 22.2557C258.314 21.2906 260.004 20.7769 261.732 20.7808C264.006 20.7808 265.726 21.3951 267.016 22.5628C268.307 23.7927 269.228 25.6979 269.781 28.3411C270.317 30.9016 270.622 34.4429 270.64 38.9086L270.641 39.3442V45.9824C270.641 52.1903 269.842 56.8008 268.368 59.7512C266.832 62.7016 264.497 64.1771 261.302 64.1771C259.521 64.1771 257.923 63.7468 256.449 62.9478C255.145 62.1876 254.064 61.0975 253.314 59.787L253.192 59.5665H253.008L252.025 63.5621H244.222V4.00059L253.315 4ZM215.714 6.15138V13.7727H206.375V63.6231H197.16V13.7732H187.76V6.15197L215.714 6.15138ZM114.4 6.15138L114.406 6.17483C114.496 6.57403 115.738 12.099 117.104 18.5362L117.212 19.0462L117.375 19.817L117.484 20.3347L117.538 20.5943L117.647 21.1149L117.702 21.3758L117.81 21.8981L117.969 22.6619C118.891 27.1194 119.772 31.5898 120.299 34.7952H120.545C121.049 31.9199 121.782 28.2402 122.564 24.4832L122.769 23.5019C122.872 23.0107 122.975 22.5194 123.08 22.0294L123.24 21.2691C124.302 16.2903 125.395 11.3184 126.52 6.35362L126.537 6.27448L126.565 6.15138H135.966L125.091 44.9378V63.5621H115.813V44.9987H115.752L105 6.15079L114.4 6.15138ZM146.595 27.3574C145.304 27.3574 144.444 28.0339 143.892 29.4478C143.338 30.8612 143.093 33.0126 143.093 36.0251V49.1174C143.093 52.1909 143.338 54.4648 143.83 55.8178C144.322 57.1695 145.243 57.846 146.595 57.846C147.885 57.846 148.806 57.1695 149.36 55.8178C149.913 54.4648 150.158 52.1909 150.158 49.1174V36.0245C150.158 33.0126 149.912 30.7996 149.36 29.4472C148.806 28.0339 147.885 27.3574 146.595 27.3574ZM254.974 28.5873C254.225 29.279 253.693 30.1319 253.376 31.1982L253.315 31.4146V55.2638C254.077 56.5546 255.159 57.4152 257.063 57.4767C258.046 57.4767 258.844 57.108 259.46 56.3705C260.074 55.6331 260.504 54.4032 260.749 52.6821C260.985 51.0302 261.108 48.7545 261.118 45.8563V40.0201C261.118 36.701 260.995 34.1809 260.811 32.3982C260.565 30.6155 260.258 29.3247 259.705 28.5873C258.636 27.0502 256.326 27.069 254.974 28.5873ZM287.476 27.1733C286.431 27.2349 285.694 27.5421 285.264 28.0954C284.773 28.7098 284.465 29.6319 284.281 30.9843C284.1 32.3091 284.038 36.9401 284.035 37.1254V40.1432H290.916V37.4818V37.5328C290.912 38.4631 290.893 36.9929 290.851 35.188L290.845 34.9453C290.806 33.359 290.75 31.5904 290.671 30.9843C290.486 29.5703 290.179 28.5867 289.688 28.0339C289.196 27.4805 288.459 27.1733 287.476 27.1733" fill="#292F3B"/>
</g>
<defs>
<clipPath id="clip0_204_7078">
<rect width="300" height="68" fill="white"/>
</clipPath>
</defs>
</svg>
