<svg width="903" height="527" viewBox="0 0 903 527" fill="none" xmlns="http://www.w3.org/2000/svg">
<path d="M525.963 505.328H376.039C380.955 513.689 387.918 515.369 390.786 515.164H512.445C524.242 513.689 526.372 507.992 525.963 505.328Z" stroke="white" stroke-width="2.45902"/>
<path d="M900.011 505.328H2.44009C1.43043 505.328 0.885058 506.437 1.62234 507.127C14.4152 519.096 60.9087 524.023 83.564 525H817.207C872.741 524.097 895.202 513.443 900.875 506.949C901.476 506.261 900.925 505.328 900.011 505.328Z" stroke="#FFA30C" stroke-width="2.45902"/>
<path d="M86.2295 36.8853C86.2295 17.1931 102.193 1.22951 121.885 1.22951H781.115C800.807 1.22951 816.771 17.1931 816.771 36.8853V505.77H86.2295V36.8853Z" stroke="#FFA30C" stroke-width="2.45902"/>
</svg>
