<svg width="735" height="896" viewBox="0 0 735 896" fill="none" xmlns="http://www.w3.org/2000/svg">
<path opacity="0.06" d="M1518.1 680.405C1465.52 711.658 1400.04 732.416 1335.01 751.909C1167.56 802.097 995.197 847.202 814.661 872.949C634.125 898.695 444.268 904.547 264.604 876.479C175.103 862.512 82.8056 837.11 35.0034 786.864C-18.1503 730.977 -2.69726 659.186 28.2088 596.872C59.1149 534.539 104.121 473.338 105.384 407.973C106.316 358.916 82.3545 310.876 80.3703 261.819C76.7626 172.051 153.337 82.7436 273.744 36.2767C346.019 8.38129 432.393 -3.43684 516.513 1.05252C586.803 4.79366 645.519 37.4854 660.581 81.4582C660.671 81.7076 660.762 81.957 660.852 82.2256C682.498 147.034 642.843 217.194 677.658 279.623C709.135 336.047 796.562 373.459 887.296 388.73C978.03 404.002 1073.48 400.913 1167.31 400.011C1261.15 399.11 1357.89 400.894 1443.91 424.818C1529.92 448.742 1603.58 499.813 1606.88 559.672C1609.41 605.486 1570.69 649.171 1518.1 680.424V680.405Z" fill="url(#paint0_linear_829_2515)"/>
<defs>
<linearGradient id="paint0_linear_829_2515" x1="-0.0215223" y1="447.572" x2="1607" y2="447.572" gradientUnits="userSpaceOnUse">
<stop stop-color="#FFA30C"/>
<stop offset="1" stop-color="#FFA27A"/>
</linearGradient>
</defs>
</svg>
