<svg width="735" height="896" viewBox="0 0 735 896" fill="none" xmlns="http://www.w3.org/2000/svg">
<path opacity="0.06" d="M1518.1 680.405C1465.52 711.658 1400.04 732.416 1335.01 751.909C1167.55 802.097 995.196 847.202 814.66 872.949C634.124 898.695 444.268 904.547 264.603 876.479C175.102 862.512 82.8046 837.11 35.0024 786.864C-18.1513 730.977 -2.69824 659.186 28.2078 596.872C59.1139 534.539 104.12 473.338 105.383 407.973C106.315 358.916 82.3536 310.876 80.3693 261.819C76.7616 172.051 153.336 82.7436 273.743 36.2767C346.018 8.38129 432.392 -3.43684 516.512 1.05252C586.802 4.79366 645.518 37.4854 660.58 81.4582C660.67 81.7076 660.761 81.957 660.851 82.2256C682.497 147.034 642.842 217.194 677.657 279.623C709.134 336.047 796.561 373.459 887.295 388.73C978.029 404.002 1073.48 400.913 1167.31 400.011C1261.14 399.11 1357.89 400.894 1443.91 424.818C1529.92 448.742 1603.58 499.813 1606.88 559.672C1609.41 605.486 1570.69 649.171 1518.1 680.424V680.405Z" fill="url(#paint0_linear_1155_4183)"/>
<defs>
<linearGradient id="paint0_linear_1155_4183" x1="-0.0224989" y1="447.572" x2="1607" y2="447.572" gradientUnits="userSpaceOnUse">
<stop stop-color="#FFA30C"/>
<stop offset="1" stop-color="#FFA27A"/>
</linearGradient>
</defs>
</svg>
