<svg width="878" height="1217" viewBox="0 0 878 1217" fill="none" xmlns="http://www.w3.org/2000/svg">
<path opacity="0.06" d="M695.769 1054.43C552.92 1169.85 362.931 1210.8 179.35 1216.37C64.966 1219.83 -52.9597 1210.1 -155.806 1159.94C-258.626 1109.75 -344.076 1012.6 -354.78 898.74C-361.499 827.363 -339.258 756.793 -317.303 688.54C-275.112 557.448 -232.895 426.356 -190.705 295.264C-166.484 220.034 -140.466 141.785 -84.5507 85.9225C-30.1194 31.5698 47.7511 4.86203 124.658 1.50403C186.59 -1.2032 261.778 -7.68491 379.964 61.4534C427.546 89.2805 471.09 123.459 510.052 162.402C566.202 218.524 622.352 274.621 678.502 330.744C748.117 400.325 819.633 472.769 854.948 564.607C920.838 735.995 838.592 939.036 695.717 1054.46L695.769 1054.43Z" fill="#0040FF" fill-opacity="0.4"/>
</svg>
