<svg width="735" height="1402" viewBox="0 0 735 1402" fill="none" xmlns="http://www.w3.org/2000/svg">
<path opacity="0.03" d="M1518.1 1065.74C1465.52 1114.7 1400.04 1147.22 1335.01 1177.76C1167.56 1256.38 995.197 1327.05 814.661 1367.38C634.125 1407.72 444.268 1416.88 264.604 1372.91C175.103 1351.03 82.8056 1311.24 35.0034 1232.52C-18.1503 1144.97 -2.69726 1032.5 28.2088 934.874C59.1149 837.222 104.121 741.343 105.384 638.942C106.316 562.089 82.3545 486.828 80.3703 409.975C76.7626 269.343 153.337 129.432 273.744 56.636C346.019 12.9345 432.393 -5.58004 516.513 1.45308C586.803 7.31401 645.519 58.5295 660.581 127.418C660.671 127.809 660.762 128.2 660.852 128.62C682.498 230.15 642.843 340.065 677.658 437.867C709.135 526.262 796.562 584.871 887.296 608.796C978.03 632.721 1073.48 627.882 1167.31 626.469C1261.15 625.056 1357.89 627.852 1443.91 665.332C1529.92 702.811 1603.58 782.821 1606.88 876.596C1609.41 948.37 1570.69 1016.81 1518.1 1065.77V1065.74Z" fill="#004DFF" fill-opacity="0.7"/>
</svg>
