<svg width="978" height="1249" viewBox="0 0 978 1249" fill="none" xmlns="http://www.w3.org/2000/svg">
<path fill-rule="evenodd" clip-rule="evenodd" d="M0 1247.96V0.363824C15.2062 -0.335893 30.4577 -0.0266707 45.6236 1.2945C105.722 6.51583 155.925 52.1422 168.803 113.513C168.88 113.861 168.957 114.209 169.034 114.584C177.398 155.456 175.059 197.854 172.728 240.092C169.902 291.326 167.088 342.325 183.404 390.083C210.317 468.831 285.068 521.045 362.646 542.358C432.01 561.415 504.6 559.987 576.54 558.571C585.059 558.403 593.57 558.236 602.065 558.103C682.291 556.844 765.01 559.334 838.553 592.724C912.096 626.114 975.074 697.392 977.901 780.933C980.06 844.874 946.952 905.843 901.994 949.461V949.435C857.035 993.053 801.049 1022.02 745.449 1049.23C602.271 1119.28 454.903 1182.23 300.543 1218.16C202.159 1241.06 100.538 1252.68 0 1247.96Z" fill="#F2F6FF" fill-opacity="0.7"/>
</svg>
