<svg width="795" height="1217" viewBox="0 0 795 1217" fill="none" xmlns="http://www.w3.org/2000/svg">
<path fill-rule="evenodd" clip-rule="evenodd" d="M795 100.701V1180.45C710.811 1203.14 622.361 1213.73 535.35 1216.37C420.966 1219.83 303.04 1210.1 200.194 1159.94C97.3736 1109.75 11.9244 1012.6 1.22042 898.74C-5.49884 827.363 16.7425 756.793 38.6973 688.54C59.7911 622.999 80.8914 557.458 101.992 491.916C123.095 426.366 144.199 360.815 165.295 295.264C189.516 220.034 215.534 141.785 271.449 85.9225C325.881 31.5698 403.751 4.86203 480.658 1.50403C483.088 1.39781 485.538 1.28578 488.011 1.17274C548.556 -1.59541 622.415 -4.97225 735.964 61.4534C756.402 73.4061 776.095 86.5306 795 100.701Z" fill="#F2F6FF" fill-opacity="0.7"/>
</svg>
