<svg width="50" height="50" viewBox="0 0 50 50" fill="none" xmlns="http://www.w3.org/2000/svg">
<circle cx="25" cy="25" r="25" transform="matrix(1 0 0 -1 0 50)" fill="#FFA30C"/>
<path fill-rule="evenodd" clip-rule="evenodd" d="M25.7563 21.3054C25.5592 21.1099 25.2917 21 25.0129 21C24.7341 21 24.4667 21.1099 24.2695 21.3054L18.321 27.2065C18.2206 27.3028 18.1405 27.4179 18.0854 27.5451C18.0303 27.6724 18.0013 27.8093 18 27.9478C17.9988 28.0863 18.0254 28.2237 18.0783 28.3519C18.1312 28.4801 18.2093 28.5965 18.308 28.6945C18.4067 28.7924 18.5241 28.8699 18.6533 28.9223C18.7826 28.9748 18.921 29.0012 19.0607 29C19.2003 28.9988 19.3383 28.97 19.4666 28.9153C19.5948 28.8606 19.7109 28.7812 19.8079 28.6815L25.0129 23.5179L30.218 28.6815C30.4163 28.8716 30.6819 28.9767 30.9576 28.9743C31.2333 28.9719 31.4971 28.8622 31.692 28.6688C31.887 28.4754 31.9976 28.2138 32 27.9403C32.0024 27.6668 31.8964 27.4033 31.7048 27.2065L25.7563 21.3054Z" fill="white"/>
</svg>
