<svg width="50" height="50" viewBox="0 0 50 50" fill="none" xmlns="http://www.w3.org/2000/svg">
<circle cx="25" cy="25" r="24.5" fill="white" stroke="#E0E0E0"/>
<path fill-rule="evenodd" clip-rule="evenodd" d="M25.7563 28.6946C25.5592 28.8901 25.2917 29 25.0129 29C24.7341 29 24.4667 28.8901 24.2695 28.6946L18.321 22.7935C18.2206 22.6972 18.1405 22.5821 18.0854 22.4549C18.0303 22.3276 18.0013 22.1907 18 22.0522C17.9988 21.9137 18.0254 21.7763 18.0783 21.6481C18.1312 21.5199 18.2093 21.4035 18.308 21.3055C18.4067 21.2076 18.5241 21.1301 18.6533 21.0777C18.7826 21.0252 18.921 20.9988 19.0607 21C19.2003 21.0012 19.3383 21.03 19.4666 21.0847C19.5948 21.1394 19.7109 21.2188 19.8079 21.3185L25.0129 26.4821L30.218 21.3185C30.4163 21.1284 30.6819 21.0233 30.9576 21.0257C31.2333 21.0281 31.4971 21.1378 31.692 21.3312C31.887 21.5246 31.9976 21.7862 32 22.0597C32.0024 22.3332 31.8964 22.5967 31.7048 22.7935L25.7563 28.6946Z" fill="#292F3B"/>
<path fill-rule="evenodd" clip-rule="evenodd" d="M25.7563 28.6946C25.5592 28.8901 25.2917 29 25.0129 29C24.7341 29 24.4667 28.8901 24.2695 28.6946L18.321 22.7935C18.2206 22.6972 18.1405 22.5821 18.0854 22.4549C18.0303 22.3276 18.0013 22.1907 18 22.0522C17.9988 21.9137 18.0254 21.7763 18.0783 21.6481C18.1312 21.5199 18.2093 21.4035 18.308 21.3055C18.4067 21.2076 18.5241 21.1301 18.6533 21.0777C18.7826 21.0252 18.921 20.9988 19.0607 21C19.2003 21.0012 19.3383 21.03 19.4666 21.0847C19.5948 21.1394 19.7109 21.2188 19.8079 21.3185L25.0129 26.4821L30.218 21.3185C30.4163 21.1284 30.6819 21.0233 30.9576 21.0257C31.2333 21.0281 31.4971 21.1378 31.692 21.3312C31.887 21.5246 31.9976 21.7862 32 22.0597C32.0024 22.3332 31.8964 22.5967 31.7048 22.7935L25.7563 28.6946Z" fill="#FFA30C"/>
</svg>
