<svg width="621" height="895" viewBox="0 0 621 895" fill="none" xmlns="http://www.w3.org/2000/svg">
<path opacity="0.06" d="M1518.1 680.28C1465.52 711.533 1400.04 732.291 1335.01 751.784C1167.55 801.972 995.196 847.077 814.66 872.824C634.124 898.57 444.268 904.422 264.603 876.354C175.102 862.387 82.8046 836.985 35.0024 786.739C-18.1513 730.852 -2.69824 659.061 28.2078 596.747C59.1139 534.414 104.12 473.213 105.383 407.848C106.315 358.791 82.3536 310.751 80.3693 261.694C76.7616 171.926 153.336 82.6186 273.743 36.1517C346.018 8.25629 432.392 -3.56184 516.512 0.927525C586.802 4.66866 645.518 37.3604 660.58 81.3332C660.67 81.5826 660.761 81.832 660.851 82.1006C682.497 146.909 642.842 217.069 677.657 279.498C709.134 335.922 796.561 373.334 887.295 388.605C978.029 403.877 1073.48 400.788 1167.31 399.886C1261.14 398.985 1357.89 400.769 1443.91 424.693C1529.92 448.617 1603.58 499.688 1606.88 559.547C1609.41 605.361 1570.69 649.046 1518.1 680.299V680.28Z" fill="url(#paint0_linear_861_3630)"/>
<defs>
<linearGradient id="paint0_linear_861_3630" x1="-0.0224989" y1="447.447" x2="1607" y2="447.447" gradientUnits="userSpaceOnUse">
<stop stop-color="#FFA30C"/>
<stop offset="1" stop-color="#FFA27A"/>
</linearGradient>
</defs>
</svg>
