<svg width="14" height="8" viewBox="0 0 14 8" fill="none" xmlns="http://www.w3.org/2000/svg">
<path fill-rule="evenodd" clip-rule="evenodd" d="M7.75635 0.30542C7.55916 0.10986 7.29175 0 7.01292 0C6.7341 0 6.46668 0.10986 6.26949 0.30542L0.321018 6.20652C0.220587 6.30275 0.140479 6.41786 0.08537 6.54513C0.0302606 6.67239 0.00125297 6.80928 3.97018e-05 6.94778C-0.00117356 7.08629 0.0254321 7.22365 0.0783037 7.35185C0.131175 7.48005 0.209254 7.59652 0.307985 7.69447C0.406715 7.79241 0.52412 7.86987 0.653348 7.92232C0.782577 7.97477 0.921041 8.00116 1.06066 7.99996C1.20028 7.99876 1.33826 7.96998 1.46655 7.91531C1.59484 7.86064 1.71087 7.78117 1.80787 7.68154L7.01292 2.51794L12.218 7.68154C12.4163 7.87156 12.6819 7.9767 12.9576 7.97432C13.2333 7.97195 13.4971 7.86224 13.692 7.66883C13.887 7.47542 13.9976 7.21379 14 6.94028C14.0024 6.66677 13.8964 6.40326 13.7048 6.20652L7.75635 0.30542Z" fill="white"/>
</svg>
